<?xml version="1.0" encoding="UTF-8"?>
<svg id="Layer_1" xmlns="http://www.w3.org/2000/svg" viewBox="0 0 1080 1080">
  <defs>
    <style>
      .cls-1 {
        fill: #518149;
      }

      .cls-2 {
        fill: #82a77c;
      }

      .cls-3 {
        fill: #d4e79a;
      }

      .cls-4 {
        fill: #a6be5b;
      }
    </style>
  </defs>
  <path class="cls-1" d="M655.11,458.79c17.99-.21,35.99-.74,53.98-.54,14.48.15,28.92,2.28,43.42,1.55,21.16-1.07,42.28-.59,63.44-.17,10.61.21,21.26.79,31.93.04,12.58-.89,23.56,8.53,27.1,22.23,1.72,6.66,2,13.51,2.53,20.31.24,2.98,1.02,3.99,4.2,3.59,14.14-1.76,24.32,6.16,23.84,20.29-.65,18.84,1.28,37.61.42,56.42-.54,11.82-4.28,15.37-16.02,15.44-3.66.02-8.21-1.34-10.71.36-2.45,1.65-2.71,6.44-4.1,9.78-3.21,7.7-6.92,15.1-12.18,21.7-4.98,6.26-11.52,8.94-19.17,9.08-87.47,1.66-174.94,3.29-262.41,4.78-9.64.16-19.3-.46-28.94-.94-5.56-.28-10.02-3.44-14.4-6.46-2.17-1.5-3.34-1.6-5.33.56-4.3,4.68-10.33,5.87-16.36,6.29-13.33.92-26.15-2.61-39-5.21-17.46-3.54-34.69-7.99-50.95-15.67-12.75-6.02-23.03-14.82-32.71-24.95-20.9-21.87-36.39-47.19-48.73-74.46-14.63-32.35-25.64-65.78-26.1-101.85-.05-3.82-.89-7.62-.98-11.44-.12-5.05,3.26-7.01,7.55-4.3,4.21,2.66,8.52,5.36,12.13,8.74,9.1,8.51,20.27,13.04,31.94,15.62,21.12,4.68,42.28,9.32,63.67,12.75,8.58,2.24,17.16,4.49,25.74,6.73,2.05.67,4.09,1.36,6.14,2,22.35,6.97,43.99,15.25,60.4,33.05,2.03,2.2,3.16,2.59,3.91-.99,2.33-11.12,9.4-17.86,20.03-21.39,4.54-1.51,9.19-1.04,13.77-1.63,8.33-.08,16.65-.17,24.98-.25,16.03-.25,32.07-.49,48.1-.74l18.88-.33ZM397.89,495.12c.19.12.38.24.57.36-.12-.19-.24-.39-.35-.58-.15-2.65-1.46-5.12-1.11-7.86.19-1.51.07-3.13,1.83-3.73,1.79-.61,2.84.79,3.71,1.93,1.51,1.97,2.6,4.27,4.17,6.19,4.54,5.56,8.42,11.83,16.79,12.68,3.88.39,7.64,2.14,11.4,3.42,1.86.63,4.06,2.63,5.49,1.54,1.65-1.26.52-4.02.43-6.13-.02-.48-.32-.94-.43-1.43-.36-1.52-.55-3.12,1.07-3.99,2.01-1.08,3.18.5,4.05,1.85,12.39,19.32,33.42,26.38,51.97,37.21,1.23-2.86-.08-5.2-.35-7.61-.63-5.63,2.76-11.63,6.69-11.89,3.77-.25,7.54,4.1,8.02,9.98.6,7.4,2.96,14.31,5.43,21.17,1.15,3.2,2.74,6.55,6.39,8.11,2.01-13.26,1.12-26.26,1.48-39.21.07-2.54-.89-4.45-2.22-6.4-11.92-17.52-28.25-29.02-47.88-36.73-30.2-11.87-61.73-19.54-92.3-30.29-18.94-6.66-37.35-13.71-53.79-25.32-.66-.47-1.24-1.3-2.15-.92-1.21.5-.87,1.69-.76,2.6.99,7.89,1.57,15.87,3.15,23.64,5.71,28.21,11.99,56.27,27.68,81.11,8.78,13.89,16.61,28.42,26.7,41.45,5.58,7.21,11.96,13.79,17.75,20.85,5.41,6.6,11.33,12.56,18.39,17.41,16.15,11.09,34.6,15.94,53.44,19.51,16.67,3.16,33.38,6.05,49.85-1.63,2.56-1.19,3.29-2.02,2.83-4.56-1.74-9.64-3.12-19.31-2.9-29.17.11-4.85-2.85-7.8-7.68-7.69-6.47.15-12.94.9-19.4.86-6.05-.04-11.48,1.17-16.42,4.79-2.44,1.79-5.54,3.49-7.83.03-1.98-3.01.06-5.57,2.53-7.16,7.86-5.04,14.07-12.91,24.19-14.15,2.53-.31,3.29-1.7.95-3.47-5.96-4.5-10.97-10.26-17.65-13.76-6.98-3.65-12.94-9.04-21.25-10.46-10.21-1.75-20.5-1.55-30.71-2.65-4.64-.5-9.24-1.01-13.52-3.03-2.13-1.01-3.24-2.63-3.23-5.14.02-2.44,1.38-3.65,3.34-4.44,2.6-1.05,5.25-1.97,8.53-3.19-9.04-3.93-17.21-7.99-26.1-10.34-6.75-1.79-13.33-4.17-19.68-7.11-2.1-.97-4.69-2.54-4.45-4.86.3-2.94,3.43-1.62,5.4-1.95.75-.13,1.65.33,2.39-.76-.31-.44-.59-1.03-1.03-1.44-3.56-3.25-7.17-6.44-10.7-9.71-.95-.88-2.18-2.04-1.13-3.4.98-1.27,2.52-.73,3.64,0,3.19,2.1,6.32,4.28,9.42,6.51,4.82,3.48,9.45,7.26,15.31,8.95ZM700.51,636.85c0-.38,0-.77,0-1.15,23.66,0,47.33.05,70.99-.01,20.82-.06,41.65-.24,62.47-.39,1.66-.01,3.55.26,4.93-.42,13.23-6.52,23.13-16.26,27.18-30.76,3.63-12.99,2.77-26.45,2.56-39.75-.34-21.32-1.3-42.63-1.64-63.95-.15-9.31-2.78-17.74-7.33-25.62-5.11-8.87-15.05-13.22-25.12-11.51-1.79.3-3.62.54-5.43.56-82.15.69-164.3,1.39-246.46,1.95-7.35.05-14.63.72-21.9,1.35-13.52,1.18-19.21,6.3-22.2,19.53-1.81,7.98-2.52,16.12-2.78,24.3-.55,17.65-.74,35.32-1.7,52.95-.85,15.72-.4,31.4,1.97,46.86,2.79,18.21,6.96,22.64,24.53,25.46,2.94.47,5.96.58,8.95.58,43.66.04,87.32.02,130.99.02ZM879.78,551.53c.08,0,.16,0,.24,0,0,9.14.1,18.29-.03,27.43-.14,9.89-.23,9.89,9.41,9.77,7.1-.09,7.51-.4,7.71-7.67.51-18.75-1.5-37.56,1.57-56.24.52-3.14-.97-5.63-2.8-8.2-3.72-5.23-9.27-4.27-14.41-5.11-2.99-.49-3.36.62-3.24,3.14.58,12.29,1.04,24.58,1.54,36.87Z"/>
  <path class="cls-4" d="M458.89,449.06c-8.58-2.24-17.16-4.49-25.74-6.73-1.38-4.1-2.81-8.18-4.09-12.3-.39-1.25-.84-1.98-2.28-2.13-15.53-1.65-28.47-9.62-41.76-16.9-18.16-9.95-30.25-25.79-41.87-42.12-5.08-7.14-11.37-13.04-17.81-18.83-1.37-1.24-3.17-3.74-5.13-.37-7.99,13.8-21.47,17.59-35.79,18.05-27.69.88-52.84-7.44-75.39-23.55-8.81-6.29-17.66-12.51-26.42-18.87-6.69-4.85-12.06-10.89-16.18-18.12-1.94-3.41-1.89-5.26,2.23-6.64,21.16-7.08,42.68-12.86,64.49-17.51,8.13-1.73,16.26-4.32,24.47-4.67,32.91-1.41,57.76,11.88,63.21,48.2.72,4.77,3.06,8.18,6.76,11.09,11.13,8.78,21.32,18.61,31.32,28.64.58.58,1.29,1.04,1.94,1.55,2.62,3.15,4.52,6.95,8.19,9.16,2,4.16,5.11,7.49,8.73,10.11,13.66,9.9,28.07,18.46,44.1,24.1,4.05,1.43,5.23.86,4.99-3.6-1.41-26.55,2.28-52.13,15.21-75.82,3.53-6.46,6.31-13.25,8.37-20.28,5.44-18.6,16.29-33.98,27.68-49.32,10.93-14.72,22.62-28.79,33.78-43.28,5.96-7.74,12.84-12.17,21.76-14.49,7.37-1.91,9.11-.13,8.6,7.5-.65,9.7.19,19.53,3.42,28.58,5.53,15.49,9.92,31.45,17.07,46.33,9.06,18.86,21.23,35.57,34.77,51.6,11.38,13.47,23.51,26.29,34.53,40.06,13.56,16.94,20.26,36.44,21.84,57.86.55,7.47.81,14.96,1.2,22.43-6.29.11-12.59.22-18.88.33-.43-6.96-.3-13.93-1.07-20.91-1.36-12.3-3.54-24.44-8.5-35.72-10.28-23.4-25.91-43.26-42.82-62.17-14.77-16.52-25.87-35.31-34.84-55.52-4.06-9.14-3.78-19.2-6.94-28.46-3.02-8.84-5.5-17.68-5.21-27.21.16-5.09-.82-10.23-1.42-15.33-.28-2.37-1.15-3.35-3.45-1.31-4.46,3.98-9.15,7.7-13.65,11.63-15.61,13.65-26.19,31.3-37.87,48.04-6.54,9.37-9.74,20.37-13.52,31.02-5.06,14.26-10.8,28.36-14.56,42.96-5.03,19.53-6.41,39.67-5.29,59.85.65,11.79,1.64,23.58,9.11,33.63,2,2.68,2.91,5.97,2.71,9.44ZM273.03,359.04c4.54.19,9.35.09,14.08-1.04,7.85-1.88,15.37-4.29,20.6-11.14,3.43-4.5,3.02-6.7-1.39-10.18-2.86-2.25-6.79-2.07-9.28-4.51-6.19-6.07-13.73-8.98-22.08-10.27-6.72-1.04-13.46-1.83-20.27-1.99-1.82-.04-4.36-.18-4.36-2.32,0-2.58,2.71-2.32,4.65-2.48.49-.04,1.01-.03,1.49.07,17.03,3.21,34.83,2.83,50.79,10.98,1.91.98,3.05.47,2.61-1.72-1.65-8.36-3.85-16.48-9.82-23.07-9.89-10.91-23.13-13.82-36.81-15.35-11.56-1.29-22.71,2.05-33.99,3.9-17.74,2.91-34.96,7.74-52.16,12.79-4.48,1.32-4.67,3.11-2.3,6.64,3.87,5.76,8.81,10.34,14.47,14.22,11.8,8.08,24,15.51,36.55,22.39,14.67,8.04,29.95,13.5,47.22,13.07Z"/>
  <path class="cls-1" d="M791.52,716.31c2.46-8.54,4.95-17.08,7.36-25.64,1.16-4.14,2.83-8.11,3.4-12.47.62-4.67,4.45-6.48,8.69-6.82,4.14-.33,8.32-.08,12.48-.13,2.5-.03,4.73,1.42,4.81,3.42.08,2.24-2.82,2.95-4.66,2.62-4.44-.8-4.81,1.9-4.45,4.86,2.34,19.08-.41,38.28,1.48,57.36.16,1.64.09,3.36-.2,4.98-.73,4.11-.86,7.5,4.79,7.95,1.75.14,4.34,1.38,3.67,3.87-.64,2.4-2.96,1.13-4.71,1.11-4.6-.05-9.22-.02-13.81.27-2.36.15-4.81.11-5.39-2.31-.49-2.07,2.09-2.15,3.56-2.63,2.19-.71,2.54-2.06,2.3-4.2-1.68-14.77-1.25-29.55-.01-44.34.48-5.77.92-11.61-1.18-18.03-5.66,15.75-10.49,31.08-13.68,46.89-.23,1.14-.28,2.33-.61,3.44-.51,1.75-.08,4.73-3.04,4.13-2.32-.47-4.97-.71-5.96-4.21-3.36-11.83-7.59-23.38-12.73-34.58-.41-.89-1.01-1.68-1.51-2.51-.43.2-.93.33-.93.46.03,15.63-3.46,31.09-2.21,46.78.17,2.19-.6,4.35,2.79,5.34,2.67.77,1.47,3.16-.43,3.84-6.27,2.24-12.78,1.54-19.19.64-1.3-.18-2.84-1.73-2.71-3.18.13-1.51,1.68-2.56,3.36-2.34,2.95.39,2.73-1.5,2.73-3.39,0-22.32-.05-44.64.05-66.95.01-2.92-.89-3.81-3.74-3.35-1.43.23-3.01-.05-4.46-.36-2.06-.44-3.1-1.96-3.02-4,.08-2.25,2-1.82,3.39-1.96,6.37-.63,12.76-.17,18.77,1.79,5.52,1.8,6.79,7.65,9.23,12.2,5.47,10.21,8.58,21.54,15.78,31.45Z"/>
  <path class="cls-1" d="M641.54,671.65c4.99.04,9.98.12,14.86,1.44,12.99,3.51,17.01,18.15,7.63,27.82-5.12,5.28-5.08,5.26-1.18,11.39,5.04,7.94,5.06,17.07,6.02,25.97.36,3.31.63,6.62.9,9.94.14,1.74.32,3.32,2.62,3.47,1.22.08,2.35.61,2.23,2.12-.1,1.23-.79,2.28-1.92,2.74-4.7,1.93-9.54,1.28-14.21.09-2.14-.55-1.91-3.04-1.35-4.78,2.85-8.98.09-17.87-.54-26.74-.44-6.07-5.26-10.3-9.77-13.92-4.04-3.24-7.14-1.63-7.64,3.59-1,10.33.63,20.6,1.2,30.89.14,2.62,1.07,5.62,4.44,6.63,1.41.42,2.14,1.59,1.81,3.13-.38,1.76-1.8,1.67-3.15,1.64-6.47-.11-12.95-.67-19.4.64-1.21.25-2.64-.25-3.89-.64-1.44-.46-3.04-1.29-2.97-2.93.06-1.61,1.98-1.82,3.13-1.84,2.9-.04,2.98-1.71,3.04-3.92.28-11.47.01-22.92.65-34.41.51-9.17.7-18.53-.43-27.79-.34-2.82-.57-4.63-4.04-4.71-1.93-.04-4.68-.23-4.47-3.46.18-2.83,1.95-4.1,4.62-4.23,7.31-.38,14.46-2.4,21.83-2.14ZM644.05,678.09c-6.35.07-6.36.07-6.2,6.49.11,4.47.36,8.94.39,13.41.02,3.28,1.25,4.38,4.59,3.68,7.81-1.65,11.06-5.5,11.01-13.84-.04-5.78-1.61-10.59-9.78-9.72Z"/>
  <path class="cls-1" d="M359.53,768.49c-1.53,1.57-3.55,2.18-5.5,1.83-4.04-.74-4.29,1.9-3.83,4.4,1.63,8.78.88,17.62.73,26.4-.15,8.82,1.2,17.61.23,26.41-.22,2.04.4,3.15,2.57,3.32,1.14.09,2.31.38,3.37.81,1.31.54,3.29.94,2.73,2.88-.43,1.51-2.11,1.11-3.47,1.09-5.11-.07-10.22-.08-15.33.04-1.91.04-4.23.23-4.79-1.67-.74-2.49,2.06-1.92,3.34-2.39,1.9-.69,2.48-1.55,2.2-3.65-1.58-11.93-1.22-23.87.04-35.83.48-4.59,1-9.29-1.22-14.34-5.69,12.62-10.45,25.08-13.73,38.1-.55,2.19.22,5.76-3.22,5.87-3.12.11-5.44-1.24-6.85-5-3.71-9.89-7.77-19.71-14.3-29.7-.74,14.53-3.61,27.66-2.53,41.07.11,1.3.33,2.22,1.82,2.46,1.08.18,2.55.19,2.2,1.96-.22,1.13-1.26,1.52-2.23,1.75-6.09,1.42-12.25.8-18.37.43-1.22-.07-2.79-1.24-2.79-2.51,0-1.77,1.76-2.33,3.3-2.2,2.48.21,2.65-1.19,2.64-3.06-.03-17.98-.05-35.97.02-53.95.01-2.51-.93-2.87-3.25-2.89-2.88-.03-7.78,1.16-7.56-3.15.19-3.73,4.92-1.9,7.54-1.92,4.46-.05,8.96.53,13.4,1.2,5.76.87,7.56,6.07,10,10.22,4.29,7.29,8.11,14.85,12.19,22.27.71,1.29,1.52,3.12,2.95,3.12,1.76,0,1.81-2.18,2.11-3.48,2.14-9.43,7.09-17.9,9.27-27.31.68-2.94,3-4.42,5.68-5.02,5.58-1.25,11.27-.6,16.92-.48,1.76.04,2.92,1.38,3.74,2.92Z"/>
  <path class="cls-1" d="M369.06,377.01c-3.67-2.21-5.58-6-8.19-9.16,2.15-5.56,4.19-11.16,6.49-16.65.9-2.14.83-3.09-1.62-3.94-18.11-6.28-23.14-20.78-20.13-38.91,3.4-20.48,14.88-35.94,31.12-48.29,8.48-6.45,16.82-13.08,25.1-19.77,3.71-3,7.93-5.61,9.53-10.59.44-1.38,1.68-2.06,3.17-1.92,1.31.12,2.03.95,2.4,2.19,9.32,31.65,16.16,63.4,2.76,95.66-4.59,11.04-11.13,20.61-23.09,24.79-5.34,1.87-10.94,3.31-16.22-.51-2.26-1.63-2.6.83-3.02,1.73-1.86,3.9-3.67,7.86-4.99,11.96-1.4,4.37-2.23,8.93-3.31,13.4ZM381.04,346.05c5.58-1.34,11.41-1.41,16.5-4.93,11.5-7.97,16.24-19.81,19.47-32.58,3.31-13.11,2.63-26.43.78-39.58-1.24-8.83-1.35-17.84-3.8-26.52-1.55-5.48-2.24-5.8-6.1-1.81-5.58,5.76-11.91,10.55-18.46,15.13-8.74,6.1-16.77,13-23.32,21.53-8.39,10.92-14.5,22.72-14.06,36.89.3,9.62,3.62,17.85,12.53,22.91,5.77,3.28,7.94,2.74,10.95-3,1.62-3.08,3.04-6.26,4.68-9.33,3.28-6.13,5.51-12.89,10.52-18.01,1.21-1.24,2.61-2.5,4.33-1.36,1.58,1.05.76,2.71.18,4.07-2.15,5.03-4.45,9.99-6.51,15.06-2.87,7.03-6.83,13.67-7.78,21.4-.13.16-.27.32-.4.49l.5-.39Z"/>
  <path class="cls-1" d="M591.58,869.36c0,6.6,0,13.2,0,19.8,0,9.66.07,19.32-.04,28.99-.03,2.86.44,5.04,3.81,5.14,3.04.1,2.66,2.29,2.8,4.25.18,2.6-1.53,3.05-3.51,3.1-5.66.13-11.33.2-16.99.29-1.45.03-2.81-.2-2.75-2.03.05-1.56-.85-4.12.99-4.44,4.29-.75,3.81-4.01,3.59-6.48-1.49-16.57.12-33.33-3.15-49.79-.51-2.57-.11-5.32-.18-7.98-.12-4.54-.04-9.17-6.18-10.15-1.4-.22-2.27-1.4-2.16-2.95.12-1.81,1.42-2.78,2.97-2.84,4.32-.17,8.65-.19,12.97-.03,1.81.06,2.56,1.78,3.6,3.11,8.64,10.98,13.57,23.99,20.02,36.17,4.33,8.18,8.02,16.65,12.13,26.42,1.22-5.54-.15-9.67-.01-13.78.28-8.49.32-16.99.77-25.47.3-5.76-1.03-11.23-2.05-16.79-.6-3.23-3.34-3.82-5.73-4.85-1.69-.72-3.81-1.25-3.53-3.53.37-3.02,2.88-1.36,4.42-1.46,4.98-.31,9.97-.51,14.96-.46,1.77.02,4.59-.48,4.65,2.42.05,2.48-2.07,3.1-4.31,2.96-1.84-.12-2.91.62-2.61,2.62,1.88,12.76.56,25.59.82,38.38.23,11.5.71,22.97,1.53,34.44.19,2.63.42,5.27-2.88,5.95-3.22.66-6.31.59-7.86-3.26-4.6-11.41-9.43-22.72-13.85-34.19-3.14-8.16-8.39-15.29-10.34-23.99-.63.14-1.26.28-1.89.42Z"/>
  <path class="cls-1" d="M685.91,706.31c0-7.66-.09-15.33.04-22.99.06-3.57-.12-6.69-4.47-7.66-1.06-.24-2.44-.94-2.28-2.3.16-1.4,1.65-1.51,2.77-1.69,5.29-.85,10.64-1.14,15.93-.41,3.37.46,5.48,2.22,2.27,5.61-1.31,1.38-1.32,2.95-1.31,4.62.07,17.16.09,34.33.22,51.49.02,2.48.69,4.95.8,7.44.18,3.87,2.15,6.15,5.75,7.2,3.65,1.07,6.92.46,9.64-2.33,2.92-3.01,4.22-6.78,4.68-10.8.45-3.96.66-7.97.74-11.96.27-12.82-.51-25.66.85-38.47.35-3.29-.08-6.3-4.07-7.51-1.7-.51-2.64-2.42-2.37-4,.28-1.63,2.22-.99,3.44-1.04,5.48-.26,10.99-1.06,16.44.06,4.91,1.01,5.41,2.54,2.24,6.36-2.45,2.96-2.27,6.48-2.47,9.96-.68,11.97-.85,23.96-.94,35.95-.08,9.89-2.41,19.16-9.43,26.67-9.73,10.42-26.39,9.55-34.36-2.01-3.93-5.7-3.9-12.65-4.3-19.21-.46-7.64-.11-15.33-.11-22.99.1,0,.19,0,.29,0Z"/>
  <path class="cls-1" d="M686.21,930.12c-2.66,0-5.33-.03-7.99.01-1.28.02-2.33-.29-2.71-1.63-.31-1.11.27-2.06,1.14-2.55,4.96-2.78,4.36-6.93,3.68-11.7-.73-5.06-.08-10.31-.36-15.46-.57-10.32-7.19-15.32-16.68-13.13-3.09.71-4.54,2.45-5.17,5.28-.04.16-.07.33-.07.49.03,9.1.22,18.19-1.97,27.15-.6,2.48-.21,4.91,2.72,6.2,1.19.52,2.13,1.77,1.66,3.28-.53,1.71-1.92,2.14-3.59,1.91-4.03-.57-7.95.53-11.92.75-2.18.12-4.55-.02-5.75-2.2-1.43-2.6,1.49-2.72,2.56-3.92.51-.58.77-1.39,1.12-2.11.07-.14.03-.33.03-.49.14-12.25.04-24.44,1.92-36.69,1.58-10.35-.74-20.87-1.83-31.29-.22-2.1-1.47-2.15-2.8-2.77-1.85-.85-3.59-2.11-2.95-4.54.63-2.37,2.53-2.71,4.74-2.62,5.31.2,10.64.16,15.95.43,1.78.09,3.76.5,4.48,2.6.8,2.35-1.38,2.69-2.64,3.53-1.77,1.18-1.39,2.81-1.24,4.47.6,6.58,2.68,13.03,1.26,19.81-.65,3.13,1.91,2.52,3.58,1.86,6.97-2.76,10.39-8.48,12.36-15.31.37-1.27.5-2.61.85-3.89.76-2.82,2.92-6.05-2.65-6.42-1.03-.07-2.42-1.53-2.32-2.91.11-1.5,1.62-2.03,2.96-2.22,3.29-.47,6.6-.92,9.91-1.18,1.81-.14,3.25.83,3.89,2.56.64,1.73-.32,2.93-1.8,3.6-1.38.62-2.05,1.54-2.18,3.02-.75,8.54-4.21,16.02-9.17,22.85-1.77,2.43-1.75,3.88,1.4,5.02,9.18,3.33,13.16,10.57,14.49,19.76.8,5.55,2.85,10.94,1.4,16.74-.58,2.31,1.12,4.06,2.99,5.34,1.55,1.06,3.15,2.03,2.31,4.35-.85,2.35-2.85,1.86-4.62,1.9-2.33.05-4.66.01-6.99.01,0,.04,0,.07,0,.11Z"/>
  <path class="cls-1" d="M834.51,716.73c-.68-6.44-.35-12.51.82-18.64,1.06-5.53,3.3-10.06,6.64-14.67,7.48-10.3,17-13.52,29.19-11.53,10.42,1.7,22.92,14.04,24.47,26.19,2.13,16.68-.19,32.58-8.52,47.75-8.97,16.36-35.29,14.95-44.45.87-6.07-9.33-8.72-19.3-8.16-29.98ZM848.91,711.8c.7,10.69.93,21.4,5.31,31.35,1.97,4.48,4.69,8.36,10.46,8.36,6.87,0,9.5-1.74,12.28-7.84,4.35-9.55,5.81-19.52,6.41-29.98.6-10.56-1.36-19.99-6.44-29.1-2.97-5.33-6.82-8.13-13.22-7.68-5.37.38-7.02,4.52-9.36,7.95-5.57,8.21-4.46,17.82-5.44,26.93Z"/>
  <path class="cls-1" d="M739.71,831.74c7.65.86,6.82-4.04,6.62-8.58-.64-14.92,1.77-29.81.34-44.75-.3-3.17-.97-4.81-4.52-4.7-1.59.05-4-.1-4.03-2.71-.02-2.25,1.65-3.26,3.6-3.44,12.74-1.12,25.49-3.31,38.26-.49,5.41,1.19,10.03,3.37,11.39,9.68,1.35,6.25.24,9.77-6.4,14.21-3.26,2.18-3.43,3.51-.67,6.17,6.55,6.34,6.55,14.97,7.59,23.19.31,2.48.6,4.96.84,7.44.16,1.63.57,2.91,2.57,2.99,1,.04,2.16.27,2.23,1.52.07,1.31-.9,2.17-2.04,2.52-4.6,1.44-9.34,1.11-13.84,0-2.88-.71-1.17-3.43-1.08-5.52.49-10.88,2.14-22.13-8.53-29.94-2.42-1.77-4.86-3.37-7.71-2.32-2.88,1.06-2.38,4.19-2.32,6.52.17,6.99.51,13.98,1.1,20.94.25,2.99,1.23,5.91,4.84,6.82.96.24,1.78.98,1.65,2.2-.13,1.25-1.02,1.63-2.11,1.61-7.48-.2-14.95-.17-22.43.42-1.85.15-3.98-.56-5.34-3.79ZM760.88,779.24c.15,2.85.29,5.51.42,8.16.09,1.71.7,2.62,2.68,2.77,8.22.65,14.24-6.21,12.5-14.17-.59-2.68-2.29-4.4-4.5-4.72-3.39-.49-7.38-1.05-10.24.28-2.4,1.12-.42,5.16-.86,7.67Z"/>
  <path class="cls-1" d="M798.47,931.09c-2.83,0-5.66-.08-8.49.02-2.93.11-4.26-1.55-2-3.34,7.84-6.2,4.43-14.42,4.47-21.96.02-3.8-.91-7.59-1.18-11.41-.19-2.59-1.22-3.84-3.91-4.04-3.98-.3-7.94-.87-11.9-1.4-2.94-.4-4.38.95-4.72,3.75-1.1,9.06-3.38,17.99-2.9,27.25.14,2.68.29,4.58,3.67,4.37,1.46-.09,3.12.17,3.22,2.28.08,1.76-.88,2.79-2.49,3.28-6.05,1.88-12.19-.12-18.3.34-1.22.09-3.46-1.43-3.53-3.02-.08-1.79,2.16-2.74,3.58-2.94,3.99-.58,4.69-2.92,5.2-6.48,2-14,3.92-28.05,6.86-41.87,2.31-10.84,7.7-20.54,15.34-28.7,3.83-4.08,9-3.69,13.27.67,5.46,5.59,7.9,12.9,8.88,20.22,2.43,18.13,5.19,36.29,5.16,54.63,0,2.73,4.52,5.56.58,7.65-2.19,1.17-5.51.23-8.32.26-.83.01-1.66.1-2.49.16,0,.1,0,.19,0,.29ZM790.64,877.7c.09-6.89-1.19-13.54-3.72-19.94-.52-1.32-.73-3.32-2.52-3.32-1.75,0-2.86,1.43-3.48,3.12-1.98,5.45-4.3,10.8-5.93,16.36-3.12,10.6-2.95,10.76,8.3,11.03,8.82.21,7.16,1.11,7.35-7.24Z"/>
  <path class="cls-1" d="M598.61,758.04c-2.5,0-5,.08-7.49-.03-1.36-.06-3.26.98-3.92-.94-.54-1.55.66-3.16,1.82-3.83,4.44-2.58,4.01-6.67,3.91-10.8-.18-7.16-.57-14.3-1.69-21.4-.38-2.43-1.36-3.44-3.74-3.65-3.98-.35-7.94-.9-11.9-1.43-2.84-.38-4.46.71-4.84,3.6-1.21,9.22-3.37,18.33-2.93,27.74.12,2.61.56,4.12,3.53,3.99,1.45-.06,3.17.07,3.34,2.15.17,2-1,2.99-2.82,3.53-5.91,1.77-11.88-.35-17.84.3-1.15.13-3.38-1.74-3.62-2.98-.34-1.76,2.05-2.81,3.43-3,4.3-.58,4.85-3.23,5.38-6.89,1.98-13.84,3.9-27.71,6.78-41.38,2.29-10.85,7.67-20.55,15.27-28.74,3.93-4.24,9.3-3.84,13.61.84,5.24,5.7,7.79,12.92,8.72,20.3,2.29,18.15,4.95,36.3,5.31,54.65,0,.5-.17,1.1.05,1.48,4.2,7.47-1.1,6.15-5.39,5.93-1.65-.09-3.32.18-4.99.29,0,.08,0,.16,0,.25ZM590.67,703.01c-.18-1.77-.3-5.28-.96-8.69-.63-3.24-1.74-6.39-2.8-9.53-.45-1.34-.72-3.33-2.49-3.35-1.75-.03-2.87,1.41-3.49,3.11-1.98,5.45-4.3,10.8-5.94,16.36-3.12,10.59-2.92,10.78,8.27,11.05,8.85.21,7.18,1.1,7.41-8.93Z"/>
  <path class="cls-1" d="M867.56,835.54c-6.18.06-12.16-.17-17.71-3.76-6.91-4.46-7.75-11.59-8.05-18.4-.56-12.3-.17-24.64.11-36.96.09-3.96-.3-6.95-4.95-7.61-.67-.09-1.24-.91-2.85-2.17,7.96-1.73,14.86-2.32,21.87-.65,1.99.47,2.41,1.99.85,3.26-2.17,1.77-1.99,3.99-1.98,6.32.05,11.99.05,23.99.12,35.98.01,2.49.24,4.98.39,7.48.28,4.9,2.46,8.07,7.65,8.79,4.66.65,9.04-1.66,11.41-6.31,1.8-3.52,2.08-7.36,2.21-11.18.4-11.64-.52-23.32.91-34.95.33-2.73-.66-4.87-3.78-5.51-1.65-.34-2.8-1.82-2.6-3.22.25-1.7,2.19-.97,3.37-1.01,5.64-.18,11.31-1.11,16.93.16,4.43,1,4.73,1.83,1.69,5.1-1.72,1.85-2.23,4-2.32,6.39-.37,9.48-1.24,18.93-.96,28.43.3,9.99-2.84,18.6-10.55,25.37-3.21,2.82-5.14,6.51-5.38,10.91-.19,3.51.52,6.05,4.99,5.09,1.18-.25,2.95-.72,3.23,1.2.23,1.59-1.19,2.33-2.54,2.58-3.66.66-7.37,1.07-10.38-1.8-2.77-2.64-2.52-5.96-1.71-9.32.27-1.13.56-2.26.84-3.39.13-.27.45-.64.37-.79-.31-.56-.77-.37-1.18-.04Z"/>
  <path class="cls-1" d="M602.91,831.28c13.23-.93,13.49-.93,13.16-14.05-.35-14.11-2.33-28.08-4.42-42.03-.42-2.83-1.97-1.95-3.57-1.73-1.85.25-4.3,1.72-5.17-1-.92-2.88,2.15-2.92,3.74-3.63,15.62-7.06,41.09-4.85,51.06,11.38,7.37,12,7.93,32.03-4.09,43.13-7.59,7-15.84,10.5-25.92,10.85-5.8.2-11.57,1.16-17.37,1.51-3.92.23-4.47-.29-7.43-4.41ZM647.2,800.84c-1.04-7.96-1.79-15.71-4.9-22.98-1-2.35-2.54-4.29-4.57-5.81-3.02-2.26-6.73-2.96-9.89-1.52-2.74,1.24-1.84,4.79-1.46,7.3,2.14,14.43-.38,29.23,3.58,43.51.32,1.16-.2,2.61-.52,3.88-.63,2.52.63,2.88,2.69,2.63,7.68-.96,12.81-5.76,13.69-13.38.53-4.61.14-9.31,1.38-13.63Z"/>
  <path class="cls-1" d="M820.05,906.78c-2.49.95-4.58,2.68-5.99-.35-.88-1.9-1.09-3.6,1.58-4.12,5.38-1.06,10.74-2.28,16.15-3.07,2.69-.39,4.93.85,5.42,3.91.48,2.99-1.33,3.53-3.82,3.82-4.1.48-6.03,3.23-6.24,7.19-.23,4.33,3.11,9.68,6.3,10.53,2.29.61,3.73-1.19,5.48-1.9,15.74-6.32,17.38-23,13.51-34.36-1.27-3.72-4.91-5.73-8.49-7.33-7.01-3.15-13.24-7.59-19.45-12.02-4.85-3.46-8.5-7.69-6.62-14.26,1.73-6.01,7.64-10.34,14.7-10.78,2.29-.14,4.62.31,6.94.47,4.71.33,8.86,3.76,14.16,1.58,2.83-1.17,4.48,1.74,4.27,4.56-.3,4.11-2.2,7.65-5.02,10.61-1.17,1.24-2.71,2.04-4.5,1.22-2-.92-1.58-2.76-1.37-4.36.34-2.55,1.61-4.93-2.01-6.63-7.85-3.68-10.01-2.35-10.32,6.32-.28,7.68,3.94,12.02,10.1,15.15,7.99,4.06,14.95,9.05,19.62,17.1,3.86,6.65,4.65,13.55,3.05,20.69-2.11,9.44-7.53,16.13-17.36,18.61-9.77,2.47-18.95,1.85-26.5-5.53-4.55-4.44-5.01-10.25-3.61-17.07Z"/>
  <path class="cls-1" d="M733.13,796.92c.79,10.74-3.35,19.73-8.77,28.6-8.62,14.1-35.35,12.38-44.62,1.36-9.04-10.75-9.13-23.12-8.1-35.81.53-6.56,3.68-11.75,8.33-16.89,12.82-14.15,37.85-10.16,49.11,4.74,4.07,5.38,4.37,11.7,4.06,18ZM703.23,770.13c-5.69-.18-6.53.18-10.07,4.02-4.48,4.87-6.21,10.66-6.69,17.23-.83,11.3-.16,22.28,4.86,32.61,2,4.12,5.39,6.81,10.18,6.63,4.99-.19,9.73-.54,12.49-6.23,3.77-7.77,5.75-15.64,6.35-24.33.66-9.4-1.61-17.28-7.09-24.64-2.69-3.62-5.89-5.83-10.04-5.3Z"/>
  <path class="cls-1" d="M417.04,832.59c.63-.47,1.01-.97,1.44-1.03,7.22-.87,7.9-6.38,8.88-11.98,1.34-7.69,3.45-15.26,4.52-22.98,1.42-10.24,6.66-18.34,13.29-25.67,7.55-8.34,16.73-6.23,21.78,3.99,5.11,10.33,5.26,21.52,6.87,32.45,1.09,7.38.9,15.18,2.6,22.19,1.9,7.83-1.83,5.94-5.9,5.94-4.49,0-8.98.35-13.47.49-.93.03-2.1.41-2.71-.61-.64-1.07.16-2.21.89-2.58,6.86-3.52,4.36-9.72,4.51-15.17,0-.17-.03-.33-.04-.5-1.2-14.62-3.35-16.39-18.21-15.4-2.23.15-3.45,1.04-3.75,3.15-1,6.88-3.16,13.57-2.9,20.68.11,3.13.35,5.18,4.12,4.95,1.07-.06,2.47.03,2.7,1.59.16,1.1-.42,1.88-1.33,2.46-3.22,2.07-19.55.88-23.28-1.99ZM457.63,793.56c.09-6.17-1-11.5-3.43-16.52-.68-1.41-.9-3.45-3.18-3.22-1.88.19-2.77,1.61-3.49,3.19-1.24,2.72-2.73,5.34-3.79,8.12-6.12,16.02-5.32,11.64,8.23,13.47,4.56.61,6.73-.78,5.67-5.04Z"/>
  <path class="cls-1" d="M210.06,832.57c.66-.48,1.03-.98,1.46-1.03,6.94-.82,7.87-5.89,8.77-11.51,1.48-9.18,3.18-18.36,5.42-27.38,2.5-10.09,8.05-18.64,16.14-25.13,5.62-4.51,13.94-.61,17.89,7.01,5.47,10.55,5.48,22.13,7.14,33.4,1.06,7.22,1.01,14.77,2.5,21.72,1.59,7.4-1.72,5.96-5.91,5.89-4.49-.08-8.98.34-13.47.47-.92.03-2.1.43-2.68-.65-.58-1.08.21-2.2.94-2.58,6.65-3.37,4.39-9.38,4.51-14.68,0-.17-.03-.33-.04-.5-1.16-15.44-2.1-16.23-17.8-15.83-2.38.06-3.87.77-4.22,3.19-.98,6.89-3.13,13.58-2.9,20.68.1,3.2.49,5.11,4.18,4.91,1.06-.06,2.47.04,2.66,1.64.13,1.11-.46,1.86-1.38,2.44-3.3,2.06-19.58.82-23.22-2.04ZM250.64,793.6c-.03-6.84-1.32-12.64-3.67-17.15-.6-1.15-.94-2.7-2.59-2.68-1.62.01-2.77.95-3.46,2.45-1.87,4.07-4.18,8-5.57,12.23-3.49,10.62-4.17,8.91,6.24,9.82.99.09,2,.13,2.98.28,4.47.67,7.45-.19,6.05-4.96Z"/>
  <path class="cls-1" d="M536.05,832.57c.65-.48,1.03-.98,1.46-1.03,6.91-.84,7.88-5.87,8.78-11.51,1.46-9.19,3.17-18.36,5.42-27.38,2.51-10.09,8.04-18.65,16.13-25.13,5.63-4.51,13.94-.63,17.9,6.99,5.47,10.54,5.48,22.13,7.14,33.4,1.06,7.22,1.01,14.77,2.5,21.72,1.58,7.38-1.72,5.96-5.9,5.89-4.49-.07-8.98.34-13.47.47-.92.03-2.1.42-2.69-.64-.59-1.08.2-2.2.93-2.58,6.82-3.54,4.57-9.74,4.4-15.18-.12-3.96-1.01-7.9-1.49-11.86-.21-1.71-.88-2.64-2.8-2.76-4.48-.28-8.95-.75-13.42-1.18-2.39-.23-3.88.71-4.23,3.14-.98,6.89-3.13,13.57-2.9,20.68.11,3.18.46,5.12,4.17,4.91,1.06-.06,2.47.04,2.67,1.63.14,1.1-.45,1.87-1.37,2.44-3.29,2.07-19.57.84-23.23-2.02ZM576.63,793.51c.07-6.32-1.09-11.63-3.51-16.66-.62-1.29-.91-3.09-2.81-3.06-1.87.03-2.91,1.32-3.64,2.95-1.83,4.09-4.15,8.02-5.5,12.26-2.97,9.36-4.33,8.49,6.02,9.24,1.16.08,2.33.15,3.48.33,4.58.72,7.3-.44,5.97-5.06Z"/>
  <path class="cls-1" d="M401.1,790.85c11.01,2.48,14.84,10.38,15.06,20.88.24,11.26-8.03,21.37-19.1,23.51-9.88,1.91-19.56-.57-29.33-1.06-1.49-.07-2.5-.94-2.57-2.53-.1-2.28,1.76-1.76,2.83-1.58,3.91.65,4.42-1.83,4.59-4.67,1.08-17.61,1.79-35.22,1.44-52.87-.04-1.91-.58-2.7-2.57-2.61-1.3.06-2.65-.2-3.93-.49-.97-.22-2.14-.74-2.07-1.85.07-1.07,1.26-1.45,2.25-1.51,3.82-.2,7.65-.49,11.47-.44,5.82.08,11.64.08,17.45.84,5.24.69,8.46,3.55,10.22,8.29,1.92,5.18.17,9.4-3.6,13.06-.8.77-2.06,1.21-2.13,3.01ZM385.04,811.53c0,5.15-.03,10.29.03,15.44.01,1.04-.47,2.27,1.06,2.95,3.83,1.69,14.03-2.21,15.82-6.22,2.41-5.38,4.08-10.56,3.21-16.97-1.55-11.36-5.5-13.02-14.04-14.88-4.53-.99-6.11,1.08-6.09,5.24.03,4.82,0,9.63,0,14.45ZM385.04,777.14c.28,2.73-.65,7.63,3.13,8.41,4.08.85,6.22-3.49,7.66-7.12.48-1.22.87-2.52,1.01-3.81.18-1.57-.41-2.81-1.95-3.66-5.68-3.1-9.85-.79-9.86,6.18Z"/>
  <path class="cls-1" d="M533.99,731.04c5.31-16.7,12.1-32.76,15.2-49.95.6-3.33-2.25-3.09-3.83-4.18-1.06-.74-2.78-1.15-2.29-2.78.45-1.52,1.89-2.28,3.58-1.98,3.51.61,6.99-.04,10.46-.29,3.05-.22,4.96,1.14,5.4,3.93.45,2.79-1.72,2.83-3.88,3.13-3,.41-2.77,3.47-3.36,5.52-5.15,17.88-10.1,35.83-15.24,53.72-1.42,4.94-3.32,9.75-4.94,14.64-.61,1.85-1.52,3.64-3.55,3.74-2.12.11-2.83-1.95-3.76-3.53-4.28-7.32-4.62-15.87-7.45-23.67-5.68-15.65-9.9-31.72-12.42-48.2-.29-1.86-.81-3.25-3.03-3.07-2.87.24-2.65-1.9-2.79-3.67-.2-2.57,1.67-2.4,3.36-2.41,5.33-.03,10.66-.11,15.99-.05,2.19.02,5.1-.99,5.9,2.18.72,2.86-1.1,4.84-3.65,5.71-1.88.64-2.28,1.69-2.02,3.35,2.52,16.27,6.07,32.28,12.33,47.87Z"/>
  <path class="cls-1" d="M502.56,844.32c8.65-.09,16.48-.56,24.26.69,6.19,1,9.32,6.37,7.08,12.12-.8,2.06-2.39,3.45-4.54,3.26-2.25-.19-2.1-2.39-2.01-3.95.28-4.83-2.23-6.14-6.5-5.56-1.32.18-2.66.3-3.98.26-4.01-.12-5.24,1.97-4.84,5.67,2.08,19.59.46,39.25.95,58.87.04,1.49-.06,3-.23,4.49-.38,3.2-.57,6.13,4,6.22,1.09.02,2.53.55,2.52,1.96-.01,1.36-1.44,1.65-2.51,2.02-.62.22-1.29.4-1.94.4-6.33.03-12.66.02-18.98.03-1.44,0-2.65-.3-3.12-1.88-.62-2.1,1.21-2.27,2.29-2.45,3.56-.59,4.22-2.62,4.19-5.96-.18-18.48-.11-36.96-.13-55.45,0-1.17-.03-2.33-.08-3.5-.43-10.49-6.81-14.04-16.24-9.05-2.39,1.26-3.92,3.08-3.81,5.92.06,1.44-.03,2.67-1.93,2.77-2.02.1-2.55-1.16-2.74-2.79-.24-1.98-.53-3.96-.67-5.96-.21-2.99.89-4.8,4.04-5.87,8.45-2.85,17.2-1.32,24.93-2.28Z"/>
  <path class="cls-1" d="M465.01,671.33c10-.08,17.82-.58,25.61.66,6.25.99,9.06,5.34,7.46,11.46-.62,2.39-2.16,3.99-4.52,3.93-2.65-.06-2.27-2.56-2.22-4.23.15-4.59-2.24-5.8-6.28-5.28-1.48.19-2.99.32-4.48.3-3.79-.05-4.93,2-4.55,5.43,2.08,18.93.45,37.92.95,56.87.05,1.83.12,3.69-.15,5.49-.57,3.91-.84,7.44,4.65,7.66.8.03,1.66.58,1.75,1.53.12,1.23-.91,1.62-1.83,1.97-3.39,1.32-6.92.53-10.39.66-3.66.13-7.33,0-10.99.04-1.65.02-3.07-.31-3.39-2.17-.35-2.04,1.59-2.08,2.63-2.27,3.39-.6,3.93-2.57,3.9-5.66-.15-18.65-.09-37.3-.11-55.95,0-1.17-.03-2.33-.08-3.5-.48-10.14-8.18-13.94-16.92-8.37-2.16,1.38-3.28,3.25-3.12,5.82.08,1.3-.15,2.31-1.72,2.46-1.59.15-2.36-.54-2.87-2.06-2.75-8.2-.67-12.4,7.92-13.66,6.89-1.01,13.94-.88,18.74-1.14Z"/>
  <path class="cls-1" d="M711.96,883.3c-.31-8.8.78-17.66-.96-26.41-.57-2.9-.89-6-4.36-7.26-1.47-.54-1.69-1.91-1.49-3.34.21-1.42,1.34-1.22,2.28-1.27,6.82-.32,13.63-.66,20.45-.87,1.4-.04,3.28-.47,3.99,1.24.68,1.61-.6,2.82-1.68,3.86-1.2,1.16-2.31,2.2-2.34,4.15-.31,20.64-3.63,41.14-2.87,61.84.31,8.38,3.89,10.92,12.22,8.63,1.91-.52,1.67-1.76,1.68-3.03.03-4,0-7.99.03-11.99.01-1.43-.43-3.22,1.67-3.62,1.63-.31,2.92.56,3.87,1.8.92,1.2,1.44,2.59,1.56,4.14.38,5.13-.71,10.26.42,15.43.61,2.79-2.07,3.03-4.06,3.09-6.16.21-12.32.23-18.48.42-4.32.13-8.65.36-12.96.66-1.85.13-3.63.33-5.27-.81-1.05-.73-2.69-1.04-2.47-2.73.19-1.54,1.67-1.38,2.78-1.52,3.08-.39,3.38-2.77,3.74-5.12,1.87-12.37,2.71-24.81,2.25-37.33Z"/>
  <path class="cls-1" d="M485.81,816.8c-2.21.76-4.51,1.19-5.06-1.88-.61-3.46,2.62-2.32,4.1-2.66,4.2-.96,8.51-1.45,12.78-2.06.97-.14,2.02-.24,2.97-.03,1.86.41,3.52,1.23,3.61,3.5.1,2.5-1.78,2.25-3.43,2.5-3.13.48-5.93,1.68-6.5,5.21-.52,3.23.97,5.85,3.43,7.85,1.75,1.43,3.48,1.81,5.93.89,12.76-4.79,17.65-10.66,17.5-21.21-.1-6.61-2.94-10.92-9.25-13.21-7.67-2.78-14.83-6.66-21.72-11-3.55-2.24-6.61-5.07-5.52-9.64,1.06-4.49,4.39-7.37,8.83-8.67,4.35-1.27,8.72-1.49,13.3-.84,4.56.65,8.83,3.06,13.92,1.38,3.25-1.07,4.98,1.79,3.94,5.35-.66,2.28-1.97,4.2-3.56,5.94-1.57,1.71-3.48,2.81-5.77,1.84-2.39-1.02-1.11-3.11-.96-4.8.5-5.38-4.19-4.08-6.84-5.07-2.49-.94-4.82-.56-5.5,2.96-1.23,6.33.51,10.65,6.3,13.76,4.53,2.44,9.38,4.31,13.81,6.91,13.39,7.83,17.07,22.03,8.67,32.9-1.2,1.55-2.63,3.16-4.32,4.07-10.36,5.55-21.07,7.06-31.96,1.63-6.94-3.46-8.73-7.17-7.91-14.91-.04-.41-.07-.83-.11-1.24-.23.18-.46.36-.7.54Z"/>
  <path class="cls-1" d="M549.89,844.94c3.49.05,6.95-.81,10.45-.18,1.43.26,3.24.06,3.53,2.04.26,1.75-.94,2.91-2.45,3.29-2.84.72-3.7,2.58-3.45,5.19,2.03,21.47-1.71,42.83-1.37,64.27.05,3.07.7,5.08,3.83,5.96,1.02.29,2.67.7,2.29,2.1-.24.89-1.63,1.98-2.58,2.06-6.94.57-13.88.5-20.75-.81-.9-.17-1.43-.9-1.38-1.82.09-1.49.92-2.55,2.42-2.73,3.84-.46,3.68-2.74,3.18-5.78-1.3-7.91-.26-15.92-.46-23.89-.33-13.14-.08-26.29-.1-39.44,0-2.04.67-4.3-2.64-4.84-2.27-.37-1.59-2.63-1.51-4.17.12-2.22,1.81-1.28,3.01-1.27,2.66.01,5.32,0,7.97,0Z"/>
  <path class="cls-1" d="M830.9,832.2c-3.01,2.69-5.01,3.27-7.54,2.94-5.27-.67-10.65.26-15.91-.81-.93-.19-2.16-.15-2.35-1.43-.21-1.43.82-2.28,2-2.39,4.18-.39,3.51-2.58,3.27-5.89-.61-8.27-.29-16.61-.31-24.92-.02-8.32,0-16.63,0-24.95,0-1.95.48-4.05-2.56-4.36-1.75-.18-1.7-1.77-1.61-3.12.08-1.37,1.06-1.41,2.13-1.41,6.48,0,12.95-.06,19.43-.02,1.28,0,3.02-.11,3.34,1.51.38,1.87-1.25,2.59-2.74,2.9-2.79.57-3.37,2.5-3.06,4.84,2.05,15.65-1.37,31.16-1.28,46.76.03,4.98-.88,9.9,7.2,10.35Z"/>
  <path class="cls-3" d="M458.89,449.06c.21-3.46-.71-6.75-2.71-9.44-7.47-10.05-8.46-21.84-9.11-33.63-1.12-20.18.26-40.32,5.29-59.85,3.76-14.6,9.51-28.71,14.56-42.96,3.78-10.65,6.98-21.65,13.52-31.02,11.68-16.74,22.27-34.39,37.87-48.04,4.5-3.94,9.19-7.66,13.65-11.63,2.3-2.05,3.18-1.06,3.45,1.31.59,5.1,1.57,10.24,1.42,15.33-.29,9.53,2.19,18.37,5.21,27.21,3.16,9.26,2.88,19.31,6.94,28.46,8.97,20.2,20.08,38.99,34.84,55.52,16.91,18.92,32.54,38.78,42.82,62.17,4.96,11.28,7.14,23.43,8.5,35.72.77,6.97.63,13.94,1.07,20.91-16.03.25-32.07.49-48.1.74-.36-.74-.55-1.64-1.1-2.19-11.81-11.7-13.92-25.67-10.44-41.36,1.5-6.75,1.73-13.8,2.38-20.72.13-1.34.87-3.31-.86-4.03-1.4-.58-2.22,1.12-3.16,1.98-4.37,3.96-7.66,8.76-10.24,14.02-1.91,3.89-3.54,7.91-5.68,12.72-6.05-11.5-11.7-22.21-17.29-32.95-.44-.85-.55-1.89-.73-2.86-2.75-14.98.49-29.71,1.77-44.53.19-2.23,1.39-5.17-1.24-6.31-2.45-1.06-4.29,1.29-5.66,3.14-2.83,3.82-5.46,7.78-8.37,11.98-3.41-6.73-4.47-13.83-6.44-20.62-2.5-8.64-.63-17.54-1.01-26.32-.12-2.66-.43-5.55-3.63-5.48-3.17.07-3.53,2.95-3.46,5.62.2,7.72-1.69,15.31-1.26,23.15-2.95-4.43-6.07-8.45-9.95-11.83-1.31-1.14-2.29-3.58-4.29-2.8-2.07.82-2.46,3.43-3.21,5.41-.59,1.54.69,2.82,1.29,4.16,10.47,23.33,24.24,45.12,32.61,69.43,2.42,7.04,4.84,14.11,5.8,21.55l.05-.05c-2.51-1.89-4.83-4.13-7.56-5.62-13.11-7.19-27.26-12.17-40.62-18.84-1.85-.92-3.94-.69-5.9-.43-2.86.38-3.3,1.75-1.4,4,1.97,2.34,4.38,4.09,6.97,5.57,10.38,5.94,19.84,13.22,29.66,19.99,12.24,8.43,21.93,19.75,33.22,29.25,5.44,4.58,11.25,8.77,14.75,15.22-4.58.59-9.23.12-13.77,1.63-10.63,3.53-17.69,10.27-20.03,21.39-.75,3.58-1.89,3.18-3.91.99-16.41-17.81-38.05-26.08-60.4-33.05-2.06-.64-4.1-1.33-6.14-2Z"/>
  <path class="cls-2" d="M397.89,495.13c-5.86-1.7-10.49-5.48-15.31-8.96-3.09-2.23-6.23-4.41-9.42-6.51-1.12-.74-2.66-1.28-3.64,0-1.06,1.37.17,2.52,1.13,3.4,3.54,3.27,7.15,6.46,10.7,9.71.45.41.72,1,1.03,1.44-.74,1.09-1.64.63-2.39.76-1.97.34-5.09-.99-5.4,1.95-.24,2.32,2.35,3.89,4.45,4.86,6.35,2.93,12.92,5.32,19.68,7.11,8.9,2.35,17.07,6.4,26.1,10.34-3.28,1.22-5.93,2.14-8.53,3.19-1.96.79-3.32,2-3.34,4.44-.02,2.51,1.09,4.13,3.23,5.14,4.27,2.02,8.87,2.53,13.52,3.03,10.21,1.1,20.5.9,30.71,2.65,8.31,1.42,14.27,6.81,21.25,10.46,6.68,3.5,11.69,9.26,17.65,13.76,2.34,1.77,1.58,3.16-.95,3.47-10.12,1.24-16.33,9.11-24.19,14.15-2.48,1.59-4.52,4.15-2.53,7.16,2.29,3.46,5.38,1.77,7.83-.03,4.94-3.63,10.37-4.84,16.42-4.79,6.46.05,12.93-.71,19.4-.86,4.82-.11,7.79,2.84,7.68,7.69-.23,9.85,1.15,19.53,2.9,29.17.46,2.54-.27,3.37-2.83,4.56-16.46,7.68-33.18,4.79-49.85,1.63-18.84-3.57-37.29-8.42-53.44-19.51-7.06-4.85-12.98-10.81-18.39-17.41-5.79-7.06-12.17-13.64-17.75-20.85-10.09-13.03-17.92-27.55-26.7-41.45-15.69-24.83-21.97-52.89-27.68-81.11-1.57-7.78-2.16-15.75-3.15-23.64-.11-.92-.45-2.1.76-2.6.91-.38,1.49.46,2.15.92,16.44,11.62,34.85,18.67,53.79,25.32,30.57,10.74,62.1,18.42,92.3,30.29,19.62,7.71,35.96,19.21,47.88,36.73,1.33,1.96,2.29,3.86,2.22,6.4-.37,12.96.52,25.95-1.48,39.21-3.65-1.56-5.23-4.91-6.39-8.11-2.47-6.86-4.83-13.77-5.43-21.17-.48-5.87-4.24-10.22-8.02-9.98-3.93.26-7.32,6.25-6.69,11.89.27,2.41,1.58,4.75.35,7.61-18.54-10.83-39.58-17.89-51.97-37.21-.87-1.36-2.05-2.93-4.05-1.85-1.62.87-1.43,2.47-1.07,3.99.11.48.41.95.43,1.43.09,2.11,1.23,4.87-.43,6.13-1.44,1.09-3.63-.9-5.49-1.54-3.76-1.28-7.52-3.03-11.4-3.42-8.36-.85-12.24-7.12-16.79-12.68-1.57-1.92-2.66-4.22-4.17-6.19-.87-1.14-1.92-2.54-3.71-1.93-1.76.6-1.64,2.23-1.83,3.73-.35,2.75.96,5.21,1.11,7.86l-.22.22Z"/>
  <path class="cls-4" d="M533.97,411.02c-.96-7.45-3.38-14.52-5.8-21.55-8.37-24.31-22.14-46.09-32.61-69.43-.6-1.34-1.88-2.61-1.29-4.16.75-1.98,1.14-4.59,3.21-5.41,2-.79,2.98,1.65,4.29,2.8,3.88,3.37,7,7.4,9.95,11.83-.43-7.84,1.45-15.43,1.26-23.15-.07-2.67.29-5.56,3.46-5.62,3.21-.07,3.52,2.82,3.63,5.48.39,8.78-1.49,17.68,1.01,26.32,1.97,6.79,3.02,13.89,6.44,20.62,2.91-4.2,5.54-8.17,8.37-11.98,1.37-1.84,3.21-4.2,5.66-3.14,2.63,1.14,1.43,4.08,1.24,6.31-1.28,14.82-4.52,29.55-1.77,44.53.18.97.29,2.01.73,2.86,5.59,10.74,11.24,21.45,17.29,32.95,2.14-4.82,3.77-8.84,5.68-12.72,2.58-5.26,5.87-10.05,10.24-14.02.94-.85,1.76-2.56,3.16-1.98,1.73.72.98,2.68.86,4.03-.65,6.93-.88,13.97-2.38,20.72-3.48,15.68-1.37,29.66,10.44,41.36.55.54.74,1.45,1.1,2.19-8.33.08-16.65.17-24.98.25-3.49-6.45-9.31-10.64-14.75-15.22-11.29-9.5-20.98-20.81-33.22-29.25-9.82-6.76-19.28-14.04-29.66-19.99-2.59-1.49-5.01-3.23-6.97-5.57-1.9-2.26-1.46-3.62,1.4-4,1.96-.26,4.05-.5,5.9.43,13.36,6.67,27.51,11.65,40.62,18.84,2.73,1.5,5.05,3.73,7.56,5.62.12.08.24.15.37.23-.14-.06-.27-.12-.41-.18Z"/>
  <path class="cls-2" d="M398.11,494.91c.12.19.24.39.35.58-.19-.12-.38-.24-.57-.36,0,0,.22-.22.22-.22Z"/>
  <path class="cls-3" d="M273.03,359.04c-17.27.43-32.55-5.03-47.22-13.07-12.55-6.88-24.75-14.31-36.55-22.39-5.66-3.87-10.6-8.45-14.47-14.22-2.37-3.53-2.18-5.32,2.3-6.64,17.2-5.06,34.42-9.89,52.16-12.79,11.29-1.85,22.44-5.19,33.99-3.9,13.68,1.53,26.92,4.43,36.81,15.35,5.97,6.59,8.16,14.7,9.82,23.07.43,2.19-.7,2.7-2.61,1.72-15.96-8.16-33.76-7.78-50.79-10.98-.49-.09-1-.11-1.49-.07-1.94.16-4.65-.11-4.65,2.48,0,2.14,2.54,2.28,4.36,2.32,6.81.16,13.55.95,20.27,1.99,8.35,1.29,15.9,4.2,22.08,10.27,2.49,2.44,6.42,2.26,9.28,4.51,4.41,3.48,4.83,5.68,1.39,10.18-5.23,6.85-12.74,9.26-20.6,11.14-4.73,1.13-9.54,1.23-14.08,1.04Z"/>
  <path class="cls-2" d="M380.94,345.95c.95-7.73,4.91-14.37,7.78-21.4,2.06-5.06,4.36-10.03,6.51-15.06.58-1.36,1.4-3.02-.18-4.07-1.72-1.14-3.12.12-4.33,1.36-5.02,5.12-7.24,11.87-10.52,18.01-1.64,3.07-3.06,6.25-4.68,9.33-3.01,5.74-5.18,6.28-10.95,3-8.9-5.06-12.23-13.29-12.53-22.91-.44-14.18,5.68-25.97,14.06-36.89,6.55-8.53,14.58-15.43,23.32-21.53,6.55-4.58,12.88-9.37,18.46-15.13,3.86-3.99,4.55-3.67,6.1,1.81,2.45,8.67,2.56,17.68,3.8,26.52,1.85,13.15,2.53,26.47-.78,39.58-3.22,12.77-7.97,24.61-19.47,32.58-5.08,3.52-10.91,3.59-16.5,4.93l-.1-.1Z"/>
  <path class="cls-2" d="M381.04,346.05c-.17.13-.33.26-.5.39.13-.16.27-.32.4-.49,0,0,.1.1.1.1Z"/>
  <path class="cls-1" d="M739.52,616.94c-6.25,1.3-12.93.13-19.58.92-7.4.87-11.17-2.78-11.04-10.27.23-13.48-2.16-27-.19-40.42,1.96-13.36.72-26.52-.66-39.79-1.24-11.86,1.15-23.55,2.53-35.28.47-3.95,2.74-5.81,6.55-6.27,9.79-1.17,19.63-1.21,29.45-.82,5.7.22,9.95,3.26,11.36,8.9,3.5,13.97,5.4,28.15,3.11,42.52-1.19,7.46-1.84,14.74-.54,22.29.95,5.54.69,11.28.95,16.93.49,10.47,1.18,20.94,1.4,31.42.17,8.14-1.58,9.72-9.49,9.84-4.5.07-9,.01-13.86.01Z"/>
  <path class="cls-1" d="M784.11,538.2c0-8.32.18-16.64-.06-24.95-.19-6.54.61-12.92,1.83-19.31.66-3.46,2.76-5.29,5.97-5.84,12.9-2.21,25.88-1.17,38.84-.78,3.53.1,4.63,2.8,5.2,5.72,4.52,23.17,6.1,46.39,2.33,69.89-1.15,7.19-.8,14.59.31,21.89.6,3.94,1.15,7.92,1.2,11.9.16,13.05-5.59,17.2-18.08,19.02-7.53,1.1-15.27.75-22.92.99-4.45.14-7.54-.84-9.02-6.14-2.21-7.92-3.8-15.81-3.82-24-.04-16.13-.01-32.26-.01-48.39-.59,0-1.18,0-1.77,0Z"/>
  <path class="cls-1" d="M687,526.32c-.49,9.46-3.92,21.33-3.39,33.54.39,9.11-.17,18.26,1.55,27.31,1.67,8.77.1,17.38-1.97,25.89-.75,3.1-3.24,4.06-6.12,4.06-9.52-.02-18.88,1.75-28.33,2.52-3.02.25-5.99.13-8.94-.51-4.48-.98-7.31-3.46-8.21-8.22-.66-3.49-.95-7.01-.51-10.43,1.99-15.38,1.22-30.89,2.43-46.3.94-12-1.3-23.9-1.58-35.89-.19-8.18,3.13-15.6,4.13-23.52.36-2.89,3.93-3.84,6.59-4.66,9.86-3.05,19.96-3.36,30.11-2.03,5.86.77,9.56,4.51,10.93,10.36,1.95,8.29,3.02,16.69,3.32,27.87Z"/>
  <path class="cls-1" d="M610.3,509.12c-1.55,17.21-1.26,35.85-1.07,54.49.11,10.98.62,21.96.71,32.94.04,4.64-.51,9.28-.82,13.93-.21,3.13-2.11,5.29-5.02,5.22-9.79-.25-19.5,2.39-29.35.38-9.72-1.99-12.82-5.23-12.74-15.06.1-11-.59-21.93-1.75-32.86-.98-9.28,1.43-18.53.7-27.89-.67-8.61-.72-17.28-.9-25.92-.08-3.95-2.04-7.48-1.44-11.73.95-6.77,4.7-11.07,10.33-13.62,9.48-4.29,19.8-3.87,29.91-3.78,4.27.04,10.33,7.23,10.7,11.54.31,3.65.45,7.31.75,12.37Z"/>
  <path class="cls-3" d="M533.97,411.02c.14.06.27.12.41.18-.12-.08-.24-.15-.37-.23,0,0-.05.05-.05.05Z"/>
</svg>